<svg width="38" height="38" viewBox="0 0 38 38" fill="none" xmlns="http://www.w3.org/2000/svg">
<path d="M19 11.125C17.3596 11.1269 15.7869 11.7795 14.6269 12.9394C13.467 14.0994 12.8144 15.6721 12.8125 17.3125C12.8105 18.6531 13.2484 19.9573 14.059 21.025C14.059 21.025 14.2278 21.2472 14.2553 21.2793L19 26.875L23.7469 21.2764C23.7717 21.2466 23.941 21.025 23.941 21.025L23.9416 21.0233C24.7517 19.956 25.1894 18.6524 25.1875 17.3125C25.1856 15.6721 24.5331 14.0994 23.3731 12.9394C22.2131 11.7795 20.6404 11.1269 19 11.125ZM19 19.5625C18.555 19.5625 18.12 19.4305 17.75 19.1833C17.38 18.9361 17.0916 18.5847 16.9213 18.1735C16.751 17.7624 16.7064 17.31 16.7932 16.8735C16.8801 16.4371 17.0943 16.0362 17.409 15.7215C17.7237 15.4068 18.1246 15.1925 18.5611 15.1057C18.9975 15.0189 19.4499 15.0635 19.861 15.2338C20.2722 15.4041 20.6236 15.6925 20.8708 16.0625C21.118 16.4325 21.25 16.8675 21.25 17.3125C21.2493 17.909 21.012 18.4809 20.5902 18.9027C20.1684 19.3245 19.5965 19.5618 19 19.5625Z" fill="black"/>
</svg>
