<svg width="50" height="49" viewBox="0 0 50 49" fill="none" xmlns="http://www.w3.org/2000/svg">
<rect x="0.853577" width="49" height="49" rx="10" fill="#122840"/>
<path d="M23.6172 33.026C25.8944 33.0255 28.1059 32.2632 29.8997 30.8605L35.5396 36.5L37.3536 34.686L31.7138 29.0465C33.1174 27.2526 33.8802 25.0407 33.8807 22.763C33.8807 17.1042 29.2762 12.5 23.6172 12.5C17.9581 12.5 13.3536 17.1042 13.3536 22.763C13.3536 28.4217 17.9581 33.026 23.6172 33.026ZM23.6172 15.0657C27.8624 15.0657 31.3148 18.518 31.3148 22.763C31.3148 27.008 27.8624 30.4602 23.6172 30.4602C19.3719 30.4602 15.9195 27.008 15.9195 22.763C15.9195 18.518 19.3719 15.0657 23.6172 15.0657Z" fill="white"/>
</svg>
